<mxfile host="app.diagrams.net" agent="Mozilla/5.0 (Windows NT 10.0; Win64; x64) AppleWebKit/537.36 (KHTML, like Gecko) Chrome/138.0.0.0 Safari/537.36" version="28.0.6">
  <diagram name="PÃ¡gina-1" id="PuR6PXavX1iiZgIphFz7">
    <mxGraphModel grid="1" page="1" gridSize="10" guides="1" tooltips="1" connect="1" arrows="1" fold="1" pageScale="1" pageWidth="827" pageHeight="1169" math="0" shadow="0">
      <root>
        <mxCell id="0" />
        <mxCell id="1" parent="0" />
        <mxCell id="X58YOSLKlplfTtcuIgnP-56" style="edgeStyle=none;curved=1;rounded=0;orthogonalLoop=1;jettySize=auto;html=1;entryX=0;entryY=0.5;entryDx=0;entryDy=0;fontSize=12;startSize=8;endSize=8;" edge="1" parent="1" source="wnuGWgDGQfipznTXfZxU-3" target="X58YOSLKlplfTtcuIgnP-29">
          <mxGeometry relative="1" as="geometry" />
        </mxCell>
        <mxCell id="wnuGWgDGQfipznTXfZxU-3" value="" style="shape=partialRectangle;whiteSpace=wrap;html=1;top=0;bottom=0;fillColor=none;rotation=90;" vertex="1" parent="1">
          <mxGeometry x="76.87" y="250" width="65" height="120" as="geometry" />
        </mxCell>
        <mxCell id="wnuGWgDGQfipznTXfZxU-6" value="" style="endArrow=none;html=1;rounded=0;exitX=1;exitY=0;exitDx=0;exitDy=0;" edge="1" parent="1" source="wnuGWgDGQfipznTXfZxU-3">
          <mxGeometry width="50" height="50" relative="1" as="geometry">
            <mxPoint x="213.12" y="316.25" as="sourcePoint" />
            <mxPoint x="203.12" y="306.25" as="targetPoint" />
          </mxGeometry>
        </mxCell>
        <mxCell id="wnuGWgDGQfipznTXfZxU-8" value="" style="endArrow=none;html=1;rounded=0;exitX=0;exitY=0;exitDx=0;exitDy=0;" edge="1" parent="1" source="wnuGWgDGQfipznTXfZxU-3">
          <mxGeometry width="50" height="50" relative="1" as="geometry">
            <mxPoint x="213.12" y="268.25" as="sourcePoint" />
            <mxPoint x="203.12" y="306.25" as="targetPoint" />
          </mxGeometry>
        </mxCell>
        <mxCell id="wnuGWgDGQfipznTXfZxU-11" value="" style="endArrow=none;html=1;rounded=0;entryX=1;entryY=1;entryDx=0;entryDy=0;" edge="1" parent="1" target="wnuGWgDGQfipznTXfZxU-3">
          <mxGeometry width="50" height="50" relative="1" as="geometry">
            <mxPoint x="16.870000000000005" y="310" as="sourcePoint" />
            <mxPoint x="40.120000000000005" y="338.25" as="targetPoint" />
          </mxGeometry>
        </mxCell>
        <mxCell id="wnuGWgDGQfipznTXfZxU-12" value="" style="endArrow=none;html=1;rounded=0;entryX=0;entryY=1;entryDx=0;entryDy=0;" edge="1" parent="1" target="wnuGWgDGQfipznTXfZxU-3">
          <mxGeometry width="50" height="50" relative="1" as="geometry">
            <mxPoint x="16.870000000000005" y="310" as="sourcePoint" />
            <mxPoint x="40.120000000000005" y="280" as="targetPoint" />
          </mxGeometry>
        </mxCell>
        <mxCell id="X58YOSLKlplfTtcuIgnP-57" style="edgeStyle=none;curved=1;rounded=0;orthogonalLoop=1;jettySize=auto;html=1;entryX=0;entryY=0.5;entryDx=0;entryDy=0;fontSize=12;startSize=8;endSize=8;" edge="1" parent="1" source="wnuGWgDGQfipznTXfZxU-13" target="X58YOSLKlplfTtcuIgnP-34">
          <mxGeometry relative="1" as="geometry" />
        </mxCell>
        <mxCell id="wnuGWgDGQfipznTXfZxU-13" value="" style="shape=partialRectangle;whiteSpace=wrap;html=1;top=0;bottom=0;fillColor=none;rotation=90;" vertex="1" parent="1">
          <mxGeometry x="286.87" y="250" width="65" height="120" as="geometry" />
        </mxCell>
        <mxCell id="wnuGWgDGQfipznTXfZxU-14" value="" style="endArrow=none;html=1;rounded=0;exitX=1;exitY=0;exitDx=0;exitDy=0;" edge="1" parent="1" source="wnuGWgDGQfipznTXfZxU-13">
          <mxGeometry width="50" height="50" relative="1" as="geometry">
            <mxPoint x="423.12" y="316.25" as="sourcePoint" />
            <mxPoint x="413.12" y="306.25" as="targetPoint" />
          </mxGeometry>
        </mxCell>
        <mxCell id="wnuGWgDGQfipznTXfZxU-15" value="" style="endArrow=none;html=1;rounded=0;exitX=0;exitY=0;exitDx=0;exitDy=0;" edge="1" parent="1" source="wnuGWgDGQfipznTXfZxU-13">
          <mxGeometry width="50" height="50" relative="1" as="geometry">
            <mxPoint x="423.12" y="268.25" as="sourcePoint" />
            <mxPoint x="413.12" y="306.25" as="targetPoint" />
          </mxGeometry>
        </mxCell>
        <mxCell id="wnuGWgDGQfipznTXfZxU-16" value="" style="endArrow=none;html=1;rounded=0;entryX=1;entryY=1;entryDx=0;entryDy=0;" edge="1" parent="1" target="wnuGWgDGQfipznTXfZxU-13">
          <mxGeometry width="50" height="50" relative="1" as="geometry">
            <mxPoint x="226.87" y="310" as="sourcePoint" />
            <mxPoint x="250.12" y="338.25" as="targetPoint" />
          </mxGeometry>
        </mxCell>
        <mxCell id="wnuGWgDGQfipznTXfZxU-17" value="" style="endArrow=none;html=1;rounded=0;entryX=0;entryY=1;entryDx=0;entryDy=0;" edge="1" parent="1" target="wnuGWgDGQfipznTXfZxU-13">
          <mxGeometry width="50" height="50" relative="1" as="geometry">
            <mxPoint x="226.87" y="310" as="sourcePoint" />
            <mxPoint x="250.12" y="280" as="targetPoint" />
          </mxGeometry>
        </mxCell>
        <mxCell id="wnuGWgDGQfipznTXfZxU-23" value="&lt;font style=&quot;vertical-align: inherit;&quot;&gt;&lt;font style=&quot;vertical-align: inherit;&quot;&gt;Idle&lt;/font&gt;&lt;/font&gt;" style="text;html=1;align=center;verticalAlign=middle;whiteSpace=wrap;rounded=0;" vertex="1" parent="1">
          <mxGeometry x="-53.129999999999995" y="295" width="60" height="30" as="geometry" />
        </mxCell>
        <mxCell id="wnuGWgDGQfipznTXfZxU-24" value="" style="shape=partialRectangle;whiteSpace=wrap;html=1;top=0;bottom=0;fillColor=none;rotation=90;" vertex="1" parent="1">
          <mxGeometry x="501.25" y="247.5" width="65" height="122.5" as="geometry" />
        </mxCell>
        <mxCell id="wnuGWgDGQfipznTXfZxU-25" value="" style="endArrow=none;html=1;rounded=0;exitX=1;exitY=0;exitDx=0;exitDy=0;" edge="1" parent="1" source="wnuGWgDGQfipznTXfZxU-24">
          <mxGeometry width="50" height="50" relative="1" as="geometry">
            <mxPoint x="636.25" y="315" as="sourcePoint" />
            <mxPoint x="626.25" y="305" as="targetPoint" />
          </mxGeometry>
        </mxCell>
        <mxCell id="wnuGWgDGQfipznTXfZxU-26" value="" style="endArrow=none;html=1;rounded=0;exitX=0;exitY=0;exitDx=0;exitDy=0;" edge="1" parent="1" source="wnuGWgDGQfipznTXfZxU-24">
          <mxGeometry width="50" height="50" relative="1" as="geometry">
            <mxPoint x="636.25" y="267" as="sourcePoint" />
            <mxPoint x="626.25" y="305" as="targetPoint" />
          </mxGeometry>
        </mxCell>
        <mxCell id="wnuGWgDGQfipznTXfZxU-27" value="" style="endArrow=none;html=1;rounded=0;entryX=1;entryY=1;entryDx=0;entryDy=0;" edge="1" parent="1" target="wnuGWgDGQfipznTXfZxU-24">
          <mxGeometry width="50" height="50" relative="1" as="geometry">
            <mxPoint x="440" y="308.75" as="sourcePoint" />
            <mxPoint x="463.25" y="337" as="targetPoint" />
          </mxGeometry>
        </mxCell>
        <mxCell id="wnuGWgDGQfipznTXfZxU-28" value="" style="endArrow=none;html=1;rounded=0;entryX=0;entryY=1;entryDx=0;entryDy=0;" edge="1" parent="1" target="wnuGWgDGQfipznTXfZxU-24">
          <mxGeometry width="50" height="50" relative="1" as="geometry">
            <mxPoint x="440" y="308.75" as="sourcePoint" />
            <mxPoint x="463.25" y="278.75" as="targetPoint" />
          </mxGeometry>
        </mxCell>
        <mxCell id="wnuGWgDGQfipznTXfZxU-58" value="" style="endArrow=classic;html=1;rounded=0;" edge="1" parent="1">
          <mxGeometry width="50" height="50" relative="1" as="geometry">
            <mxPoint x="196.87" y="309.40999999999997" as="sourcePoint" />
            <mxPoint x="226.87" y="309.82000000000005" as="targetPoint" />
          </mxGeometry>
        </mxCell>
        <mxCell id="wnuGWgDGQfipznTXfZxU-63" value="" style="endArrow=classic;html=1;rounded=0;" edge="1" parent="1">
          <mxGeometry width="50" height="50" relative="1" as="geometry">
            <mxPoint x="410" y="308.15999999999997" as="sourcePoint" />
            <mxPoint x="440" y="308.57000000000005" as="targetPoint" />
          </mxGeometry>
        </mxCell>
        <mxCell id="wnuGWgDGQfipznTXfZxU-64" value="" style="endArrow=classic;html=1;rounded=0;" edge="1" parent="1">
          <mxGeometry width="50" height="50" relative="1" as="geometry">
            <mxPoint x="-13.130000000000003" y="309.40999999999997" as="sourcePoint" />
            <mxPoint x="16.870000000000005" y="309.82000000000005" as="targetPoint" />
          </mxGeometry>
        </mxCell>
        <mxCell id="wnuGWgDGQfipznTXfZxU-65" value="Uusario_Cliente_Admin" style="shape=umlFrame;whiteSpace=wrap;html=1;pointerEvents=0;width=160;height=30;" vertex="1" parent="1">
          <mxGeometry x="-130" y="185" width="780" height="425" as="geometry" />
        </mxCell>
        <mxCell id="wnuGWgDGQfipznTXfZxU-66" value="&lt;div style=&quot;text-align: left;&quot;&gt;Registrarse&lt;/div&gt;" style="text;html=1;align=center;verticalAlign=middle;whiteSpace=wrap;rounded=0;" vertex="1" parent="1">
          <mxGeometry x="79.37" y="295" width="60" height="30" as="geometry" />
        </mxCell>
        <mxCell id="wnuGWgDGQfipznTXfZxU-67" value="&lt;span style=&quot;text-align: left;&quot;&gt;Iniciar Sesion&lt;/span&gt;" style="text;html=1;align=center;verticalAlign=middle;whiteSpace=wrap;rounded=0;" vertex="1" parent="1">
          <mxGeometry x="291.87" y="293.75" width="60" height="30" as="geometry" />
        </mxCell>
        <mxCell id="wnuGWgDGQfipznTXfZxU-69" value="&lt;span style=&quot;text-align: left;&quot;&gt;Cerrar Sesion&lt;/span&gt;" style="text;html=1;align=center;verticalAlign=middle;whiteSpace=wrap;rounded=0;" vertex="1" parent="1">
          <mxGeometry x="502.5" y="293.75" width="60" height="30" as="geometry" />
        </mxCell>
        <mxCell id="wnuGWgDGQfipznTXfZxU-84" value="&lt;span style=&quot;color: rgb(0, 0, 0); font-family: Helvetica; font-size: 12px; font-style: normal; font-variant-ligatures: normal; font-variant-caps: normal; font-weight: 400; letter-spacing: normal; orphans: 2; text-align: left; text-indent: 0px; text-transform: none; widows: 2; word-spacing: 0px; -webkit-text-stroke-width: 0px; white-space: normal; background-color: rgb(236, 236, 236); text-decoration-thickness: initial; text-decoration-style: initial; text-decoration-color: initial; float: none; display: inline !important;&quot;&gt;&lt;font style=&quot;vertical-align: inherit;&quot;&gt;&lt;font style=&quot;vertical-align: inherit;&quot;&gt;&lt;font style=&quot;vertical-align: inherit;&quot;&gt;&lt;font style=&quot;vertical-align: inherit;&quot;&gt;&lt;font style=&quot;vertical-align: inherit;&quot;&gt;&lt;font style=&quot;vertical-align: inherit;&quot;&gt;&lt;font style=&quot;vertical-align: inherit;&quot;&gt;&lt;font style=&quot;vertical-align: inherit;&quot;&gt;{&amp;lt;1min}&lt;/font&gt;&lt;/font&gt;&lt;/font&gt;&lt;/font&gt;&lt;/font&gt;&lt;/font&gt;&lt;/font&gt;&lt;/font&gt;&lt;/span&gt;" style="text;whiteSpace=wrap;html=1;" vertex="1" parent="1">
          <mxGeometry x="493.75" y="240" width="80" height="40" as="geometry" />
        </mxCell>
        <mxCell id="wnuGWgDGQfipznTXfZxU-85" value="&lt;font style=&quot;vertical-align: inherit;&quot;&gt;&lt;font style=&quot;vertical-align: inherit;&quot;&gt;Usuario&lt;/font&gt;&lt;/font&gt;" style="text;html=1;align=center;verticalAlign=middle;whiteSpace=wrap;rounded=0;" vertex="1" parent="1">
          <mxGeometry x="-113.13" y="293.75" width="60" height="30" as="geometry" />
        </mxCell>
        <mxCell id="wnuGWgDGQfipznTXfZxU-106" value="{&lt;30min}" style="text;whiteSpace=wrap;" vertex="1" parent="1">
          <mxGeometry x="76.87" y="240" width="80" height="40" as="geometry" />
        </mxCell>
        <mxCell id="wnuGWgDGQfipznTXfZxU-146" value="{&lt;5min}" style="text;whiteSpace=wrap;" vertex="1" parent="1">
          <mxGeometry x="300" y="240" width="80" height="40" as="geometry" />
        </mxCell>
        <mxCell id="X58YOSLKlplfTtcuIgnP-1" value="" style="shape=partialRectangle;whiteSpace=wrap;html=1;top=0;bottom=0;fillColor=none;rotation=90;" vertex="1" parent="1">
          <mxGeometry x="76.87" y="360" width="65" height="120" as="geometry" />
        </mxCell>
        <mxCell id="X58YOSLKlplfTtcuIgnP-2" value="" style="endArrow=none;html=1;rounded=0;exitX=1;exitY=0;exitDx=0;exitDy=0;" edge="1" parent="1" source="X58YOSLKlplfTtcuIgnP-1">
          <mxGeometry width="50" height="50" relative="1" as="geometry">
            <mxPoint x="213.12" y="426.25" as="sourcePoint" />
            <mxPoint x="203.12" y="416.25" as="targetPoint" />
          </mxGeometry>
        </mxCell>
        <mxCell id="X58YOSLKlplfTtcuIgnP-3" value="" style="endArrow=none;html=1;rounded=0;exitX=0;exitY=0;exitDx=0;exitDy=0;" edge="1" parent="1" source="X58YOSLKlplfTtcuIgnP-1">
          <mxGeometry width="50" height="50" relative="1" as="geometry">
            <mxPoint x="213.12" y="378.25" as="sourcePoint" />
            <mxPoint x="203.12" y="416.25" as="targetPoint" />
          </mxGeometry>
        </mxCell>
        <mxCell id="X58YOSLKlplfTtcuIgnP-4" value="" style="endArrow=none;html=1;rounded=0;entryX=1;entryY=1;entryDx=0;entryDy=0;" edge="1" parent="1" target="X58YOSLKlplfTtcuIgnP-1">
          <mxGeometry width="50" height="50" relative="1" as="geometry">
            <mxPoint x="16.870000000000005" y="420" as="sourcePoint" />
            <mxPoint x="40.120000000000005" y="448.25" as="targetPoint" />
          </mxGeometry>
        </mxCell>
        <mxCell id="X58YOSLKlplfTtcuIgnP-5" value="" style="endArrow=none;html=1;rounded=0;entryX=0;entryY=1;entryDx=0;entryDy=0;" edge="1" parent="1" target="X58YOSLKlplfTtcuIgnP-1">
          <mxGeometry width="50" height="50" relative="1" as="geometry">
            <mxPoint x="16.870000000000005" y="420" as="sourcePoint" />
            <mxPoint x="40.120000000000005" y="390" as="targetPoint" />
          </mxGeometry>
        </mxCell>
        <mxCell id="X58YOSLKlplfTtcuIgnP-6" value="" style="shape=partialRectangle;whiteSpace=wrap;html=1;top=0;bottom=0;fillColor=none;rotation=90;" vertex="1" parent="1">
          <mxGeometry x="286.87" y="360" width="65" height="120" as="geometry" />
        </mxCell>
        <mxCell id="X58YOSLKlplfTtcuIgnP-7" value="" style="endArrow=none;html=1;rounded=0;exitX=1;exitY=0;exitDx=0;exitDy=0;" edge="1" parent="1" source="X58YOSLKlplfTtcuIgnP-6">
          <mxGeometry width="50" height="50" relative="1" as="geometry">
            <mxPoint x="423.12" y="426.25" as="sourcePoint" />
            <mxPoint x="413.12" y="416.25" as="targetPoint" />
          </mxGeometry>
        </mxCell>
        <mxCell id="X58YOSLKlplfTtcuIgnP-8" value="" style="endArrow=none;html=1;rounded=0;exitX=0;exitY=0;exitDx=0;exitDy=0;" edge="1" parent="1" source="X58YOSLKlplfTtcuIgnP-6">
          <mxGeometry width="50" height="50" relative="1" as="geometry">
            <mxPoint x="423.12" y="378.25" as="sourcePoint" />
            <mxPoint x="413.12" y="416.25" as="targetPoint" />
          </mxGeometry>
        </mxCell>
        <mxCell id="X58YOSLKlplfTtcuIgnP-9" value="" style="endArrow=none;html=1;rounded=0;entryX=1;entryY=1;entryDx=0;entryDy=0;" edge="1" parent="1" target="X58YOSLKlplfTtcuIgnP-6">
          <mxGeometry width="50" height="50" relative="1" as="geometry">
            <mxPoint x="226.87" y="420" as="sourcePoint" />
            <mxPoint x="250.12" y="448.25" as="targetPoint" />
          </mxGeometry>
        </mxCell>
        <mxCell id="X58YOSLKlplfTtcuIgnP-10" value="" style="endArrow=none;html=1;rounded=0;entryX=0;entryY=1;entryDx=0;entryDy=0;" edge="1" parent="1" target="X58YOSLKlplfTtcuIgnP-6">
          <mxGeometry width="50" height="50" relative="1" as="geometry">
            <mxPoint x="226.87" y="420" as="sourcePoint" />
            <mxPoint x="250.12" y="390" as="targetPoint" />
          </mxGeometry>
        </mxCell>
        <mxCell id="X58YOSLKlplfTtcuIgnP-11" value="&lt;font style=&quot;vertical-align: inherit;&quot;&gt;&lt;font style=&quot;vertical-align: inherit;&quot;&gt;Idle&lt;/font&gt;&lt;/font&gt;" style="text;html=1;align=center;verticalAlign=middle;whiteSpace=wrap;rounded=0;" vertex="1" parent="1">
          <mxGeometry x="-53.129999999999995" y="405" width="60" height="30" as="geometry" />
        </mxCell>
        <mxCell id="X58YOSLKlplfTtcuIgnP-17" value="" style="endArrow=classic;html=1;rounded=0;" edge="1" parent="1">
          <mxGeometry width="50" height="50" relative="1" as="geometry">
            <mxPoint x="196.87" y="419.40999999999997" as="sourcePoint" />
            <mxPoint x="226.87" y="419.82000000000005" as="targetPoint" />
          </mxGeometry>
        </mxCell>
        <mxCell id="X58YOSLKlplfTtcuIgnP-19" value="" style="endArrow=classic;html=1;rounded=0;" edge="1" parent="1">
          <mxGeometry width="50" height="50" relative="1" as="geometry">
            <mxPoint x="-13.129999999999995" y="419.40999999999997" as="sourcePoint" />
            <mxPoint x="16.870000000000005" y="419.82000000000005" as="targetPoint" />
          </mxGeometry>
        </mxCell>
        <mxCell id="X58YOSLKlplfTtcuIgnP-20" value="&lt;div style=&quot;text-align: left;&quot;&gt;Inactivar Cuenta&lt;/div&gt;" style="text;html=1;align=center;verticalAlign=middle;whiteSpace=wrap;rounded=0;" vertex="1" parent="1">
          <mxGeometry x="79.37" y="405" width="60" height="30" as="geometry" />
        </mxCell>
        <mxCell id="X58YOSLKlplfTtcuIgnP-21" value="&lt;span style=&quot;text-align: left;&quot;&gt;Reactivar Cuenta&lt;/span&gt;" style="text;html=1;align=center;verticalAlign=middle;whiteSpace=wrap;rounded=0;" vertex="1" parent="1">
          <mxGeometry x="291.87" y="403.75" width="60" height="30" as="geometry" />
        </mxCell>
        <mxCell id="X58YOSLKlplfTtcuIgnP-24" value="&lt;font style=&quot;vertical-align: inherit;&quot;&gt;&lt;font style=&quot;vertical-align: inherit;&quot;&gt;Administrador&lt;/font&gt;&lt;/font&gt;" style="text;html=1;align=center;verticalAlign=middle;whiteSpace=wrap;rounded=0;" vertex="1" parent="1">
          <mxGeometry x="-113.13" y="403.75" width="60" height="30" as="geometry" />
        </mxCell>
        <mxCell id="X58YOSLKlplfTtcuIgnP-25" value="{&lt;2min}" style="text;whiteSpace=wrap;" vertex="1" parent="1">
          <mxGeometry x="50" y="360" width="80" height="40" as="geometry" />
        </mxCell>
        <mxCell id="X58YOSLKlplfTtcuIgnP-26" value="{&lt;2min}" style="text;whiteSpace=wrap;" vertex="1" parent="1">
          <mxGeometry x="300.0000000000001" y="360" width="80" height="40" as="geometry" />
        </mxCell>
        <mxCell id="X58YOSLKlplfTtcuIgnP-27" style="edgeStyle=none;curved=1;rounded=0;orthogonalLoop=1;jettySize=auto;html=1;entryX=0.5;entryY=0;entryDx=0;entryDy=0;fontSize=12;startSize=8;endSize=8;" edge="1" parent="1" source="wnuGWgDGQfipznTXfZxU-3" target="wnuGWgDGQfipznTXfZxU-3">
          <mxGeometry relative="1" as="geometry" />
        </mxCell>
        <mxCell id="X58YOSLKlplfTtcuIgnP-29" value="" style="shape=partialRectangle;whiteSpace=wrap;html=1;top=0;bottom=0;fillColor=none;rotation=90;" vertex="1" parent="1">
          <mxGeometry x="76.87" y="480" width="65" height="120" as="geometry" />
        </mxCell>
        <mxCell id="X58YOSLKlplfTtcuIgnP-30" value="" style="endArrow=none;html=1;rounded=0;exitX=1;exitY=0;exitDx=0;exitDy=0;" edge="1" parent="1" source="X58YOSLKlplfTtcuIgnP-29">
          <mxGeometry width="50" height="50" relative="1" as="geometry">
            <mxPoint x="213.12" y="546.25" as="sourcePoint" />
            <mxPoint x="203.12" y="536.25" as="targetPoint" />
          </mxGeometry>
        </mxCell>
        <mxCell id="X58YOSLKlplfTtcuIgnP-31" value="" style="endArrow=none;html=1;rounded=0;exitX=0;exitY=0;exitDx=0;exitDy=0;" edge="1" parent="1" source="X58YOSLKlplfTtcuIgnP-29">
          <mxGeometry width="50" height="50" relative="1" as="geometry">
            <mxPoint x="213.12" y="498.25" as="sourcePoint" />
            <mxPoint x="203.12" y="536.25" as="targetPoint" />
          </mxGeometry>
        </mxCell>
        <mxCell id="X58YOSLKlplfTtcuIgnP-32" value="" style="endArrow=none;html=1;rounded=0;entryX=1;entryY=1;entryDx=0;entryDy=0;" edge="1" parent="1" target="X58YOSLKlplfTtcuIgnP-29">
          <mxGeometry width="50" height="50" relative="1" as="geometry">
            <mxPoint x="16.870000000000005" y="540" as="sourcePoint" />
            <mxPoint x="40.120000000000005" y="568.25" as="targetPoint" />
          </mxGeometry>
        </mxCell>
        <mxCell id="X58YOSLKlplfTtcuIgnP-33" value="" style="endArrow=none;html=1;rounded=0;entryX=0;entryY=1;entryDx=0;entryDy=0;" edge="1" parent="1" target="X58YOSLKlplfTtcuIgnP-29">
          <mxGeometry width="50" height="50" relative="1" as="geometry">
            <mxPoint x="16.870000000000005" y="540" as="sourcePoint" />
            <mxPoint x="40.120000000000005" y="510" as="targetPoint" />
          </mxGeometry>
        </mxCell>
        <mxCell id="X58YOSLKlplfTtcuIgnP-34" value="" style="shape=partialRectangle;whiteSpace=wrap;html=1;top=0;bottom=0;fillColor=none;rotation=90;" vertex="1" parent="1">
          <mxGeometry x="286.87" y="480" width="65" height="120" as="geometry" />
        </mxCell>
        <mxCell id="X58YOSLKlplfTtcuIgnP-35" value="" style="endArrow=none;html=1;rounded=0;exitX=1;exitY=0;exitDx=0;exitDy=0;" edge="1" parent="1" source="X58YOSLKlplfTtcuIgnP-34">
          <mxGeometry width="50" height="50" relative="1" as="geometry">
            <mxPoint x="423.12" y="546.25" as="sourcePoint" />
            <mxPoint x="413.12" y="536.25" as="targetPoint" />
          </mxGeometry>
        </mxCell>
        <mxCell id="X58YOSLKlplfTtcuIgnP-36" value="" style="endArrow=none;html=1;rounded=0;exitX=0;exitY=0;exitDx=0;exitDy=0;" edge="1" parent="1" source="X58YOSLKlplfTtcuIgnP-34">
          <mxGeometry width="50" height="50" relative="1" as="geometry">
            <mxPoint x="423.12" y="498.25" as="sourcePoint" />
            <mxPoint x="413.12" y="536.25" as="targetPoint" />
          </mxGeometry>
        </mxCell>
        <mxCell id="X58YOSLKlplfTtcuIgnP-37" value="" style="endArrow=none;html=1;rounded=0;entryX=1;entryY=1;entryDx=0;entryDy=0;" edge="1" parent="1" target="X58YOSLKlplfTtcuIgnP-34">
          <mxGeometry width="50" height="50" relative="1" as="geometry">
            <mxPoint x="226.87" y="540" as="sourcePoint" />
            <mxPoint x="250.12" y="568.25" as="targetPoint" />
          </mxGeometry>
        </mxCell>
        <mxCell id="X58YOSLKlplfTtcuIgnP-38" value="" style="endArrow=none;html=1;rounded=0;entryX=0;entryY=1;entryDx=0;entryDy=0;" edge="1" parent="1" target="X58YOSLKlplfTtcuIgnP-34">
          <mxGeometry width="50" height="50" relative="1" as="geometry">
            <mxPoint x="226.87" y="540" as="sourcePoint" />
            <mxPoint x="250.12" y="510" as="targetPoint" />
          </mxGeometry>
        </mxCell>
        <mxCell id="X58YOSLKlplfTtcuIgnP-39" value="&lt;font style=&quot;vertical-align: inherit;&quot;&gt;&lt;font style=&quot;vertical-align: inherit;&quot;&gt;Idle&lt;/font&gt;&lt;/font&gt;" style="text;html=1;align=center;verticalAlign=middle;whiteSpace=wrap;rounded=0;" vertex="1" parent="1">
          <mxGeometry x="-53.129999999999995" y="525" width="60" height="30" as="geometry" />
        </mxCell>
        <mxCell id="X58YOSLKlplfTtcuIgnP-45" value="" style="endArrow=classic;html=1;rounded=0;" edge="1" parent="1">
          <mxGeometry width="50" height="50" relative="1" as="geometry">
            <mxPoint x="196.87" y="539.41" as="sourcePoint" />
            <mxPoint x="226.87" y="539.82" as="targetPoint" />
          </mxGeometry>
        </mxCell>
        <mxCell id="X58YOSLKlplfTtcuIgnP-47" value="" style="endArrow=classic;html=1;rounded=0;" edge="1" parent="1">
          <mxGeometry width="50" height="50" relative="1" as="geometry">
            <mxPoint x="-13.129999999999995" y="539.41" as="sourcePoint" />
            <mxPoint x="16.870000000000005" y="539.82" as="targetPoint" />
          </mxGeometry>
        </mxCell>
        <mxCell id="X58YOSLKlplfTtcuIgnP-48" value="&lt;div style=&quot;text-align: left;&quot;&gt;Validar Datos Basicos&lt;/div&gt;" style="text;html=1;align=center;verticalAlign=middle;whiteSpace=wrap;rounded=0;" vertex="1" parent="1">
          <mxGeometry x="76.24000000000001" y="525" width="80.63" height="30" as="geometry" />
        </mxCell>
        <mxCell id="X58YOSLKlplfTtcuIgnP-49" value="&lt;span style=&quot;text-align: left;&quot;&gt;Validar Inicio de Sesion&lt;/span&gt;" style="text;html=1;align=center;verticalAlign=middle;whiteSpace=wrap;rounded=0;" vertex="1" parent="1">
          <mxGeometry x="291.87" y="523.75" width="60" height="30" as="geometry" />
        </mxCell>
        <mxCell id="X58YOSLKlplfTtcuIgnP-52" value="&lt;font style=&quot;vertical-align: inherit;&quot;&gt;&lt;font style=&quot;vertical-align: inherit;&quot;&gt;Sistema&lt;/font&gt;&lt;/font&gt;" style="text;html=1;align=center;verticalAlign=middle;whiteSpace=wrap;rounded=0;" vertex="1" parent="1">
          <mxGeometry x="-113.13" y="523.75" width="60" height="30" as="geometry" />
        </mxCell>
        <mxCell id="X58YOSLKlplfTtcuIgnP-53" value="{&lt;1min}" style="text;whiteSpace=wrap;" vertex="1" parent="1">
          <mxGeometry x="76.87" y="470" width="53.13" height="40" as="geometry" />
        </mxCell>
        <mxCell id="X58YOSLKlplfTtcuIgnP-54" value="{&lt;5min}" style="text;whiteSpace=wrap;" vertex="1" parent="1">
          <mxGeometry x="300" y="470" width="80" height="40" as="geometry" />
        </mxCell>
      </root>
    </mxGraphModel>
  </diagram>
</mxfile>
